<svg width="29" height="29" viewBox="0 0 29 29" fill="none" xmlns="http://www.w3.org/2000/svg">
<path d="M20.0332 8.31059L15.6336 15.6336L8.31059 20.0332L12.7125 12.7125L20.0332 8.31059Z" fill="#FAFAFA"/>
<path d="M8.51941 19.6821C8.61389 19.7594 8.68252 19.8109 8.68252 19.8109L8.31339 20.0341L8.51941 19.6821Z" fill="white"/>
<path d="M19.7137 8.83128L15.636 15.6303L8.68253 19.8109L13.55 13.6987L19.4304 9.01157L19.7137 8.83128Z" fill="#1D1D1B"/>
<path d="M14.1719 27.3438C21.4465 27.3438 27.3438 21.4465 27.3438 14.1719C27.3438 6.89725 21.4465 1 14.1719 1C6.89725 1 1 6.89725 1 14.1719C1 21.4465 6.89725 27.3438 14.1719 27.3438Z" stroke="#1D1D1B" stroke-width="1.44" stroke-miterlimit="10" stroke-linecap="round" stroke-linejoin="round"/>
<path d="M20.0332 8.31059L15.6336 15.6336L8.31059 20.0332L12.7125 12.7125L20.0332 8.31059Z" stroke="#1D1D1B" stroke-width="1.44" stroke-miterlimit="10" stroke-linecap="round" stroke-linejoin="round"/>
</svg>
