<svg width="25" height="23" viewBox="0 0 25 23" fill="none" xmlns="http://www.w3.org/2000/svg">
<path d="M24.878 11.9496C24.6021 12.6742 23.9188 13.1424 23.1364 13.1424H22.4997V22.1785C22.4997 22.632 22.1264 23 21.6664 23H16.6667V17.2497C16.6667 14.985 14.7976 13.1424 12.5002 13.1424C10.2028 13.1424 8.33369 14.985 8.33369 17.2497V23H3.33392C2.87394 23 2.50062 22.632 2.50062 22.1785V13.1424H1.86315C1.08069 13.1424 0.397383 12.675 0.121562 11.9505C-0.154259 11.2259 0.0482319 10.4291 0.638206 9.92145L10.3703 0.836046C11.5652 -0.278682 13.436 -0.278682 14.6301 0.836046L24.3855 9.94281C24.9505 10.4283 25.1538 11.2251 24.878 11.9496Z" fill="black"/>
</svg>
