<svg width="116" height="33" viewBox="0 0 116 33" fill="none" xmlns="http://www.w3.org/2000/svg">
<path fill-rule="evenodd" clip-rule="evenodd" d="M88.2727 9.8919C87.5898 9.91804 85.986 10.3663 85.6971 14.8476C85.4082 19.3282 86.5903 20.4879 87.5898 20.6197C88.5877 20.7515 90.3487 19.1441 90.4533 14.3726C90.559 9.60212 88.2727 9.8919 88.2727 9.8919ZM66.6149 23.6716C62.6651 27.1021 62.3237 29.5527 62.3237 29.5527C62.3237 29.5527 61.9335 31.5622 63.8356 31.6601C66.1213 31.8932 66.5048 29.1033 66.5662 26.6611C66.5961 25.5081 66.6149 23.6716 66.6149 23.6716ZM64.2745 9.75285C63.5811 9.77955 61.8361 10.3902 61.4426 14.728C61.1493 19.2676 62.3491 20.4429 63.363 20.5763C64.3769 20.7098 66.1645 19.0807 66.2702 14.2474C66.3775 9.41357 64.2745 9.75285 64.2745 9.75285ZM50.2955 9.73283C49.6125 9.75897 48.0087 10.2073 47.7204 14.6885C47.4315 19.1692 48.6136 20.3288 49.6125 20.4607C50.6109 20.5925 52.3714 18.9851 52.476 14.2141C52.5822 9.4425 50.2955 9.73283 50.2955 9.73283ZM116 17.3538C116 22.4435 112.932 22.3623 112.932 22.3623C110.012 22.4663 109.266 19.3655 109.082 16.2136C108.943 13.8431 109.082 11.2051 109.082 11.2051C109.082 11.2051 109.061 11.0833 108.981 11.2051C108.005 12.9866 107.341 15.6896 107.016 17.7815C106.779 19.2993 106.755 20.5702 106.755 20.5702C106.755 20.5702 106.795 20.8556 106.554 21.0185C104.97 21.751 103.947 20.7126 103.587 19.5524C103.106 18.4534 102.825 11.8363 102.825 11.4904C102.825 11.1439 102.543 11.4092 102.543 11.4092C100.358 15.094 100.338 20.5096 100.338 21.6086C100.338 22.7082 98.473 22.3623 98.473 22.3623C96.8885 22.2399 96.9488 21.4662 96.9488 21.4662L96.8769 20.152C96.3268 21.1726 95.3029 22.498 93.7295 22.3956C91.3476 22.241 90.8855 19.7621 90.8506 19.3438C90.8506 19.3438 89.6652 22.4307 86.4022 22.3956C84.1862 22.3612 83.2969 20.0585 83.2969 20.0585C83.2969 20.0585 82.407 22.4652 80.227 22.3784C78.046 22.2911 76.249 19.7621 76.3885 16.4839C76.5279 13.2051 77.0338 11.5655 77.0338 11.5655C77.0338 11.5655 77.2086 11.234 76.912 11.2167C76.6159 11.1995 74.7315 11.2518 74.7315 11.2518C74.7315 11.2518 73.6673 15.5423 69.1668 20.8784C69.1668 20.8784 69.2028 22.5464 69.2011 24.4018C69.1989 27.9097 68.765 32.6157 64.0376 33C59.9473 32.7219 60.178 29.5527 60.178 29.5527C60.0806 28.6217 60.6656 26.9064 63.104 24.6026C65.5424 22.2994 66.5175 21.4173 66.5175 21.4173L66.4207 19.9467C64.8595 22.5441 62.4703 22.3973 62.4703 22.3973C62.4703 22.3973 60.6252 22.7744 59.0734 20.0151C58.6168 20.9601 57.5802 22.5725 55.8845 22.3851C53.5015 22.1214 53.0283 19.7315 52.9934 19.3099C52.9934 19.3099 51.8025 22.4201 48.5262 22.3851C46.3008 22.3495 45.4076 20.0307 45.4076 20.0307C45.1497 19.5607 44.951 18.8477 44.847 18.4278C44.8204 18.5134 44.79 18.6069 44.7479 18.7159C44.2432 20.0135 42.9936 22.2761 41.0765 22.305C37.5545 22.305 37.4056 16.8143 37.4056 16.8143C36.3873 19.2498 34.3928 22.3695 30.6793 22.3484C26.9658 22.3261 26.5203 20.9807 26.5203 20.7883C26.5203 20.5958 26.4566 20.3822 26.8811 19.7626C27.3056 19.143 27.6664 18.8866 27.963 18.8866C28.2602 18.8866 28.791 19.3355 28.791 19.3355C28.791 19.3355 29.5973 20.1253 30.5094 20.1253C31.6765 20.083 31.9311 19.143 32.0163 18.1814C32.101 17.2203 31.422 16.1947 30.4883 15.3398C29.5547 14.4855 28.833 13.8448 28.833 13.8448C27.4965 16.1096 26.4776 17.6474 25.7355 18.9723C23.9313 21.9207 22.1415 22.3767 21.4492 22.2839C20.494 22.1559 19.5814 21.1726 19.5393 18.3099C19.4967 15.4471 19.7513 10.5543 19.7513 10.2979C19.7513 10.0415 19.5183 10.17 19.5183 10.17C15.9531 13.9727 14.8922 21.7922 14.8922 21.9418C14.8922 22.092 14.574 22.2622 14.2558 22.2622C13.9375 22.2622 14.362 22.241 13.0886 22.1982C11.8157 22.1559 11.9004 19.7204 11.9004 19.7204L11.985 8.07538C12.0061 7.69105 12.3675 7.5203 13.5767 7.84066C14.7865 8.16103 14.7439 8.56705 14.7439 8.56705L14.7013 15.3187C17.8204 6.06752 20.1758 7.5203 21.5975 8.22499C23.0193 8.93024 22.8283 9.95586 22.8283 9.95586C22.8283 9.95586 22.68 15.0411 22.6158 16.836C22.5527 18.6308 22.8068 19.3355 23.2102 19.4C24.2075 19.6347 27.7511 12.7546 27.7511 12.7546C26.181 11.0454 27.0383 8.95917 28.2602 8.05424C29.0904 7.43909 30.1065 7.37068 30.1065 7.37068C30.1065 7.37068 31.6976 7.28503 31.6555 8.63101C31.6976 10.1055 30.0638 11.9003 30.0638 11.9003C33.2256 14.1651 34.711 15.3615 34.9445 17.1129C35.0491 17.9533 34.8593 18.4806 34.8593 18.4806C37.109 16.515 37.2783 14.3147 37.2783 14.3147L37.3209 6.96466L33.9899 6.92239C33.9899 6.92239 33.7353 6.9007 33.6927 6.2811C33.6927 5.10587 34.3081 4.6142 34.3081 4.6142L37.4908 4.65702C37.4908 4.65702 37.5971 1.34546 37.6181 0.810957C37.7238 0.0422995 38.212 -0.0650456 39.6127 0.298148C41.0128 0.661341 41.0128 0.981707 41.0128 0.981707L40.8429 4.84946C40.8429 4.84946 44.3445 5.02022 44.8116 5.06304C45.2781 5.10587 45.4264 5.23379 45.3207 6.02414C45.2145 6.81505 44.7479 7.00749 44.7479 7.00749L40.8009 7.09259L40.5253 15.6179C40.5253 16.9422 40.5884 20.0619 41.8192 20.0402C43.5381 20.1253 44.557 16.2586 44.557 16.2586L44.5758 16.228C44.5564 15.6251 44.5686 14.9021 44.6544 14.0906C44.9798 10.9837 46.3584 7.34287 49.524 7.34287C49.524 7.34287 51.4516 7.27279 52.4677 9.20556L52.5025 8.50253C52.5025 8.50253 52.4323 7.65935 53.7644 7.87014C55.0959 8.08094 55.5508 8.60821 55.516 9.0298C55.516 9.0298 55.2708 14.4421 55.4114 17.6408C55.5896 19.4984 55.9072 20.5969 56.8475 20.5218C57.6583 20.4034 58.2338 19.2893 58.5825 18.3405C57.4054 8.4992 62.7642 7.30616 62.7642 7.30616C62.7642 7.30616 65.1362 7.13152 66.2176 9.1199L66.2524 8.45692C66.2524 8.45692 66.1478 7.58537 67.4047 7.82954C67.4047 7.82954 67.9277 7.89906 68.4861 8.10819C69.0439 8.31732 69.2183 8.45692 69.2183 8.9803C69.2183 9.50312 69.1137 18.6986 69.1137 18.6986C69.1137 18.6986 71.9051 14.9316 72.603 11.269C72.603 11.269 71.6262 10.5365 71.6965 9.49033C71.7657 8.44358 72.2887 7.18825 73.8244 7.18825C75.3596 7.18825 75.4294 8.54814 75.1853 9.49033C75.1853 9.49033 76.4759 9.31569 77.5922 9.03648C78.709 8.75782 80.2093 8.58318 80.3139 10.3274C80.3837 10.9553 80.1042 11.4437 80.1042 11.4437C80.1042 11.4437 79.232 15.3153 79.3714 16.8849C79.5114 18.4545 79.9304 20.8261 81.1513 20.5469C82.3721 20.2682 82.7911 18.5246 82.7911 18.5246C82.7911 18.5246 82.3002 16.5061 82.5464 14.164C82.8713 11.0805 84.2438 7.46746 87.3961 7.46746C87.3961 7.46746 89.3154 7.39738 90.3276 9.31569L90.3619 8.61822C90.3619 8.61822 90.2922 7.78115 91.6188 7.99028C92.9437 8.19996 93.398 8.72278 93.3626 9.14104C93.3626 9.14104 93.1186 14.5127 93.2586 17.6875C93.4357 19.5313 93.7517 20.6214 94.6886 20.5469C95.5918 20.5202 96.3533 18.9862 96.8243 17.7353L96.8182 17.2726L96.8487 8.20219C96.9239 7.68326 97.3905 7.65267 97.3905 7.65267L98.473 7.82064C99.9921 8.04979 99.7813 8.6299 99.7813 8.6299V13.7602C100.909 10.279 101.451 8.95027 101.962 8.06481C102.398 7.31006 103.827 7.80507 103.827 7.80507C103.827 7.80507 105.376 8.21776 105.406 9.65274C105.361 12.0199 105.692 15.8754 105.692 15.8754C105.698 15.9366 105.751 15.9555 105.78 15.9288C105.803 15.9077 105.805 15.8448 105.805 15.8448C106.113 13.3636 107.517 9.29121 108.079 8.23278C108.64 7.17435 110.264 7.92743 110.264 7.92743C112.21 8.59931 111.949 9.75953 111.949 9.75953C111.367 19.7154 112.59 20.3667 113.313 20.4278C114.034 20.489 114.416 19.5524 114.576 19.1041C114.737 18.6569 114.937 17.6797 115.057 17.2926C115.177 16.906 115.559 16.8855 115.559 16.8855C115.559 16.8855 116 16.9872 116 17.3538ZM3.05937 2.23147C5.2526 0.0689968 6.61126 0.00447833 6.61126 0.00447833C6.61126 0.00447833 7.03907 -0.0605963 8.07674 0.305378C9.11442 0.671352 9.15703 1.23088 9.15703 1.23088V17.0573C9.29041 21.4874 8.19462 23.1904 6.87857 24.374C6.13089 24.9847 5.52987 25.0626 5.45571 25.0626C5.27419 25.0626 5.13528 25.0409 5.10263 24.7939C5.07108 24.5464 5.29522 23.9007 5.29522 23.9007C5.95878 22.211 5.90509 19.2849 5.90509 19.2849L5.96929 2.23147C5.96929 2.23147 6.02297 1.91945 5.75567 2.01622C3.16674 4.25434 2.84575 7.40683 2.75997 8.93469C2.71735 11.2262 3.70688 12.4098 3.70688 12.4098C3.70688 12.4098 3.96367 12.6356 3.93157 12.9582C3.93157 13.3942 3.53034 13.362 3.53034 13.362C2.55686 13.2708 1.0056 12.1623 0.449407 10.828C-0.011598 9.8424 2.67956e-05 8.7784 2.67956e-05 8.7784C0.0321256 7.43854 0.866692 4.39394 3.05937 2.23147Z" fill="#1D1D1B"/>
</svg>
