<svg width="26" height="26" viewBox="0 0 26 26" fill="none" xmlns="http://www.w3.org/2000/svg">
<path d="M13 14.9927C16.864 14.9927 19.9963 11.8603 19.9963 7.99635C19.9963 4.13237 16.864 1 13 1C9.13602 1 6.00364 4.13237 6.00364 7.99635C6.00364 11.8603 9.13602 14.9927 13 14.9927Z" stroke="#303030" stroke-width="0.7" stroke-miterlimit="10" stroke-linecap="round" stroke-linejoin="round"/>
<path d="M1 24.335C1 20.5884 4.0654 17.523 7.812 17.523H18.188C21.9346 17.523 25 20.5884 25 24.335" stroke="#303030" stroke-width="1.44" stroke-miterlimit="10" stroke-linecap="round" stroke-linejoin="round"/>
<path d="M13 14.9927C16.864 14.9927 19.9963 11.8603 19.9963 7.99635C19.9963 4.13237 16.864 1 13 1C9.13602 1 6.00364 4.13237 6.00364 7.99635C6.00364 11.8603 9.13602 14.9927 13 14.9927Z" stroke="#303030" stroke-width="1.44" stroke-miterlimit="10" stroke-linecap="round" stroke-linejoin="round"/>
</svg>
