<svg width="26" height="26" viewBox="0 0 26 26" fill="none" xmlns="http://www.w3.org/2000/svg">
<path fill-rule="evenodd" clip-rule="evenodd" d="M15.9342 18.3076C14.2848 19.4829 12.2667 20.1742 10.0871 20.1742C4.51614 20.1742 0 15.658 0 10.0871C0 4.51614 4.51614 0 10.0871 0C15.658 0 20.1742 4.51614 20.1742 10.0871C20.1742 12.2667 19.4829 14.2848 18.3076 15.9342L24.9352 22.5618C25.5881 23.2147 25.5827 24.2594 24.935 24.9071L24.9071 24.935C24.2611 25.581 23.2094 25.5828 22.5618 24.9352L15.9342 18.3076ZM10.0871 17.8008C14.3472 17.8008 17.8008 14.3472 17.8008 10.0871C17.8008 5.82696 14.3472 2.37343 10.0871 2.37343C5.82696 2.37343 2.37343 5.82696 2.37343 10.0871C2.37343 14.3472 5.82696 17.8008 10.0871 17.8008Z" fill="black"/>
</svg>
