<svg width="133" height="109" viewBox="0 0 133 109" fill="none" xmlns="http://www.w3.org/2000/svg">
<path fill-rule="evenodd" clip-rule="evenodd" d="M133 12.8274C129.287 18.2284 124.645 23.0387 119.329 26.9207C119.413 28.1022 119.413 29.2836 119.413 30.4651C119.413 66.5 91.986 108.02 41.8579 108.02C26.4143 108.02 12.0679 103.548 0 95.7836C2.19416 96.0368 4.30394 96.1212 6.58249 96.1212C19.3255 96.1212 31.0558 91.8173 40.4232 84.4753C28.4397 84.2221 18.3972 76.3737 14.9372 65.5717C16.625 65.8249 18.3128 65.9937 20.085 65.9937C22.5324 65.9937 24.9797 65.6561 27.2583 65.0654C14.7684 62.5336 5.40102 51.5628 5.40102 38.3135C5.40102 38.2291 5.40102 38.0603 5.40102 37.9759C9.02983 40.0013 13.2494 41.2671 17.7221 41.4359C10.3801 36.5412 5.5698 28.1866 5.5698 18.7348C5.5698 13.6713 6.92004 9.02982 9.28299 4.97906C22.7011 21.5197 42.8706 32.3217 65.4873 33.5032C65.0654 31.4778 64.8122 29.368 64.8122 27.2583C64.8122 12.2367 76.9645 0 92.0704 0C99.9188 0 107.008 3.29124 111.987 8.60787C118.147 7.4264 124.055 5.14784 129.287 2.02538C127.261 8.3547 122.957 13.6713 117.303 17.047C122.789 16.4562 128.105 14.9372 133 12.8274Z" fill="#4BB0EE"/>
</svg>
